<svg width="158" height="34" viewBox="0 0 158 34" fill="none" xmlns="http://www.w3.org/2000/svg">
<path d="M11.7672 33.5821C8.24481 33.5821 4.72237 33.555 1.19994 33.6008C0.30897 33.6133 -0.0101167 33.4758 0.000243411 32.6634C0.0520439 28.399 0.0333886 24.1346 0.0188845 19.8702C0.00562367 19.6403 0.049663 19.4107 0.146995 19.2023C0.244326 18.9938 0.391871 18.8131 0.576258 18.6765C4.16776 15.6989 7.74269 12.7066 11.301 9.69983C11.7465 9.32276 11.9744 9.26235 12.4552 9.66858C16.008 12.6768 19.5794 15.6704 23.1696 18.6494C23.3455 18.7703 23.4894 18.9325 23.5887 19.1221C23.688 19.3116 23.7397 19.5227 23.7394 19.7369C23.72 24.07 23.72 28.4038 23.7394 32.7384C23.7394 33.3988 23.5529 33.6133 22.7034 33.6029C19.0628 33.5571 15.4181 33.5821 11.7672 33.5821Z" fill="#1769FF"/>
<path d="M12.1526 0.0106812C15.7807 0.0106812 19.4461 0.0106812 23.1094 0.0106812C23.5238 0.0106812 23.731 0.110676 23.731 0.468993C23.731 3.56677 23.731 6.66455 23.731 9.71233L12.1526 0.0106812Z" fill="#1769FF"/>
<path d="M0.211495 9.53733C0.00429317 9.42276 0.0312304 9.2436 0.0312304 9.07277C0.0312304 6.29998 0.0312309 3.52511 0.0187988 0.752314C0.0187988 0.287752 0.041593 -0.0101516 0.79788 0.000264611C4.32031 0.0460959 7.84275 0.0398473 11.3652 0.0502635L11.3859 0.42108C7.78058 3.51261 4.225 6.64371 0.38555 9.53733C0.3277 9.53108 0.269345 9.53108 0.211495 9.53733Z" fill="#1769FF"/>
<path d="M0.211497 5.26668C0.269287 5.25938 0.327763 5.25938 0.385553 5.26668L0.0229492 5.42084C0.0229492 5.31459 0.0312317 5.21668 0.211497 5.26668Z" fill="#1769FF"/>
<path d="M48.1685 5.80625C49.8599 5.7947 51.5382 6.10573 53.1144 6.72287C54.6091 7.30457 55.9792 8.16871 57.1507 9.26859C58.3095 10.3689 59.2386 11.6904 59.8837 13.1559C60.5693 14.7104 60.9148 16.3949 60.8969 18.0953C60.9148 19.7957 60.5693 21.4801 59.8837 23.0346C59.2345 24.5008 58.306 25.825 57.1507 26.9324C55.9832 28.0416 54.6124 28.9119 53.1144 29.4948C51.5382 30.1119 49.8599 30.4229 48.1685 30.4114C46.477 30.4229 44.7987 30.1119 43.2226 29.4948C41.7208 28.9096 40.3449 28.0397 39.1697 26.9324C38.0073 25.8287 37.0778 24.501 36.4367 23.0284C35.7614 21.4711 35.4217 19.7878 35.4401 18.089C35.4215 16.3903 35.7612 14.7069 36.4367 13.1497C37.0744 11.68 38.0045 10.3571 39.1697 9.26234C40.3496 8.16738 41.7247 7.30647 43.2226 6.72496C44.7986 6.10711 46.4769 5.79536 48.1685 5.80625ZM38.7138 18.0974C38.6966 19.3519 38.9489 20.5955 39.4536 21.743C39.931 22.8164 40.6204 23.781 41.48 24.5783C42.3522 25.3816 43.3731 26.0045 44.4844 26.4116C45.6627 26.8468 46.9091 27.0655 48.1643 27.0574C49.4086 27.0635 50.6438 26.8448 51.8111 26.4116C52.9222 26.004 53.943 25.3812 54.8155 24.5783C55.6751 23.781 56.3645 22.8164 56.8419 21.743C57.3476 20.595 57.6006 19.3507 57.5837 18.0953C57.6004 16.8392 57.3474 15.5943 56.8419 14.4454C56.365 13.3729 55.6689 12.4132 54.7989 11.6289C53.9153 10.8367 52.8901 10.2203 51.7779 9.81232C50.6106 9.3791 49.3754 9.16035 48.1312 9.16652C46.8813 9.15725 45.6401 9.37606 44.4678 9.81232C43.3655 10.2202 42.3512 10.8368 41.48 11.6289C40.6182 12.4168 39.9282 13.3759 39.4536 14.4454C38.9489 15.5944 38.6965 16.8393 38.7138 18.0953V18.0974Z" fill="#1769FF"/>
<path d="M63.7666 13.1038H66.771V16.4995C67.2743 15.4567 68.0364 14.562 68.9839 13.9017C69.9164 13.2587 71.1596 12.9365 72.7136 12.9351C73.6562 12.9246 74.5897 13.1215 75.4486 13.5121C76.2824 13.8985 77.0163 14.4731 77.5932 15.1912C78.2245 15.9954 78.6946 16.9152 78.9773 17.8995C79.3195 19.0963 79.4843 20.3374 79.4663 21.5826V30.0781H76.1283V21.5576C76.1283 20.2452 75.948 19.2098 75.5875 18.4515C75.3015 17.7914 74.8775 17.201 74.3443 16.7203C73.9338 16.3565 73.4407 16.0997 72.9083 15.9725C72.5479 15.8869 72.1802 15.8359 71.8102 15.8204C71.2653 15.8334 70.7299 15.9664 70.2417 16.2099C69.6698 16.4852 69.154 16.8653 68.7208 17.3307C68.2352 17.8576 67.8465 18.467 67.5729 19.1306C67.2587 19.9001 67.1036 20.7259 67.1171 21.5576V30.0781H63.7749L63.7666 13.1038Z" fill="#1769FF"/>
<path d="M89.8989 13.0038C90.9393 12.9944 91.9698 13.2074 92.922 13.6288C93.8427 14.0379 94.6699 14.6328 95.3525 15.3766C96.0562 16.1534 96.5961 17.0655 96.9397 18.0578C97.3193 19.1584 97.4743 20.3246 97.3955 21.4868L97.3271 22.9805H85.2058C85.5259 24.0851 86.1771 25.0636 87.0706 25.7824C87.9214 26.4998 88.9978 26.8903 90.1082 26.8845C90.7236 26.8916 91.3387 26.8519 91.9482 26.7657C92.4104 26.6986 92.8636 26.5791 93.2991 26.4095C93.6753 26.261 94.0323 26.0673 94.3621 25.8324C94.6933 25.5917 95.0095 25.3308 95.309 25.0512L96.7594 28.1073C96.3198 28.447 95.8634 28.7641 95.3919 29.0573C94.9461 29.3316 94.4706 29.5539 93.9746 29.7197C93.4243 29.8995 92.8592 30.0299 92.2859 30.1093C91.5641 30.2059 90.8364 30.2511 90.1082 30.2447C88.9738 30.2526 87.851 30.0153 86.8158 29.5489C85.8109 29.1011 84.9003 28.4648 84.1325 27.674C83.3625 26.8743 82.7495 25.9357 82.3257 24.9075C81.8849 23.8488 81.6608 22.7116 81.6668 21.5639C81.6591 20.4194 81.8833 19.2853 82.3257 18.2307C82.7465 17.2221 83.354 16.3031 84.1159 15.5225C84.8726 14.7519 85.7658 14.1302 86.7495 13.6892C87.7387 13.2375 88.8125 13.0039 89.8989 13.0038ZM93.8171 19.9952C93.7741 19.4835 93.6294 18.9858 93.3917 18.5313C93.154 18.0769 92.828 17.675 92.433 17.3495C91.641 16.6762 90.6335 16.3136 89.5964 16.3287C89.0683 16.3216 88.5446 16.426 88.059 16.6349C87.6069 16.8363 87.1878 17.1053 86.8158 17.4328C86.4452 17.7615 86.1266 18.1451 85.8709 18.5703C85.6185 18.9882 85.4101 19.4316 85.2493 19.8931L85.2141 19.9952H93.8171Z" fill="#1769FF"/>
<path d="M98.6118 16.1599V13.1038H101.21V9.33733L104.554 8.01239V13.1038H109.855V16.1599H104.554V24.5117C104.554 25.3033 104.802 25.9283 105.296 26.3866C105.828 26.8522 106.517 27.0952 107.221 27.0657C107.676 27.0607 108.127 26.9805 108.555 26.8282C109.036 26.6576 109.478 26.392 109.855 26.047L111.846 28.0157C111.167 28.6221 110.419 29.1458 109.618 29.576C108.767 30.0338 107.815 30.2674 106.85 30.2551C106.102 30.2592 105.361 30.1096 104.672 29.8156C104.004 29.533 103.396 29.1234 102.882 28.6094C102.361 28.0781 101.948 27.4497 101.666 26.7595C101.359 26.0176 101.204 25.2213 101.21 24.4179V16.1683L98.6118 16.1599Z" fill="#1769FF"/>
<path d="M112.859 13.1038H116.201V21.6243C116.201 22.9388 116.381 23.9783 116.742 24.7491C117.023 25.4119 117.448 26.0033 117.985 26.4803C118.401 26.8354 118.892 27.0904 119.421 27.2261C119.779 27.322 120.147 27.3792 120.517 27.3969C121.063 27.3844 121.599 27.2507 122.088 27.0053C122.662 26.7275 123.177 26.3413 123.607 25.8678C124.092 25.3349 124.48 24.7208 124.754 24.0533C125.07 23.2833 125.225 22.4567 125.21 21.6243V13.1038H128.55V30.0781H125.208V27.4969C124.679 28.3703 123.927 29.0853 123.031 29.5677C122.142 30.0454 121 30.2836 119.603 30.2822C118.661 30.2917 117.728 30.0948 116.868 29.7052C116.034 29.3192 115.301 28.7437 114.726 28.024C114.093 27.2204 113.622 26.3005 113.34 25.3158C112.997 24.119 112.832 22.8778 112.851 21.6326L112.859 13.1038Z" fill="#1769FF"/>
<path d="M131.936 13.0705H135.278V15.4475C135.842 14.5982 136.624 13.918 137.541 13.4788C138.486 13.0565 139.511 12.8475 140.545 12.8663C141.44 12.8653 142.328 13.0059 143.179 13.283L142.143 16.5078C141.607 16.3342 141.048 16.2422 140.485 16.2349C139.831 16.2308 139.182 16.3583 138.577 16.6099C137.988 16.8532 137.445 17.1979 136.973 17.6286C136.501 18.0568 136.112 18.5688 135.825 19.139C135.53 19.7244 135.346 20.3604 135.285 21.0139V30.0781H131.942L131.936 13.0705Z" fill="#1769FF"/>
<path d="M145.205 16.1599V13.1038H147.433V10.2185C147.425 9.42204 147.575 8.63192 147.872 7.89365C148.149 7.20545 148.563 6.58153 149.088 6.0604C149.616 5.5444 150.242 5.14055 150.928 4.87295C151.655 4.58912 152.428 4.44769 153.207 4.4563C154.086 4.4569 154.956 4.62368 155.773 4.94795C156.59 5.26392 157.344 5.72466 158 6.30831L155.739 8.75403C155.393 8.41497 154.978 8.1543 154.523 7.98948C154.111 7.8438 153.678 7.76846 153.241 7.76657C152.587 7.7419 151.948 7.96496 151.45 8.39155C150.978 8.80819 150.742 9.41302 150.742 10.206V13.0913H156.751V16.1474H150.742V30.1051H147.427V16.1474L145.205 16.1599Z" fill="#1769FF"/>
</svg>
